<?xml version="1.0" encoding="utf-8"?>
<!-- Generator: Adobe Illustrator 17.0.0, SVG Export Plug-In . SVG Version: 6.00 Build 0)  -->
<!DOCTYPE svg PUBLIC "-//W3C//DTD SVG 1.1//EN" "http://www.w3.org/Graphics/SVG/1.1/DTD/svg11.dtd">
<svg version="1.1" id="Ebene_1" xmlns="http://www.w3.org/2000/svg" xmlns:xlink="http://www.w3.org/1999/xlink" x="0px" y="0px"
	 width="59.528px" height="59.527px" viewBox="0 0 59.528 59.527" enable-background="new 0 0 59.528 59.527" xml:space="preserve">
<g>
	<path fill="#FFFFFF" d="M1.701,0h56.126c0.939,0,1.701,0.762,1.701,1.701v56.125c0,0.939-0.762,1.701-1.701,1.701H1.701
		C0.761,59.527,0,58.766,0,57.826V1.701C0,0.762,0.761,0,1.701,0L1.701,0z"/>
	<path fill="#008244" d="M2.268,1.417H57.26c0.47,0,0.85,0.381,0.85,0.851V57.26c0,0.469-0.381,0.85-0.85,0.85H2.268
		c-0.47,0-0.85-0.381-0.85-0.85V2.268C1.417,1.798,1.798,1.417,2.268,1.417L2.268,1.417z"/>
	<path fill="#FFFFFF" d="M29.881,41.455c0.021,1.467,0.003,10.803,0.003,10.803c0.129,0.389,0.528,0.902,0.169,1.231
		c-0.089,0.082-0.147,0.143-0.267,0.158c-0.941,0.111-1.609,0.135-2.682-0.02c-0.204-0.029-0.373-0.23-0.428-0.396
		c-0.115-0.666,0.363-0.723,0.382-1.162c0,0,0.013-5.037,0.013-8.355c0-0.576-0.888-0.812-0.473-1.457
		c0.406-0.631,1.199-0.869,1.809-1.076C28.728,41.07,29.873,40.936,29.881,41.455L29.881,41.455z"/>
	<path fill="#FFFFFF" d="M44.893,45.859c0.867,0.986,0.755,2.176,0.858,3.344c0.051,0.969,0.022,1.65,0.132,2.922
		c0.066,0.426,0.762,0.859,0.309,1.357c-0.269,0.293-0.896,0.207-1.359,0.207c-0.737,0-1.972,0.197-2.073-0.416
		c-0.093-0.553,0.562-0.742,0.489-1.258c-0.074-1.521,0.158-3.113-0.293-4.531c-0.147-0.381-0.467-0.43-0.705-0.438
		c-0.181-0.008-0.407,0.178-0.413,0.33c-0.046,1.105-0.008,4.832-0.008,4.832c0.138,0.387,0.7,0.672,0.396,1.15
		c-0.188,0.297-0.535,0.277-0.839,0.332l-2.166-0.018c-0.193-0.037-0.368-0.185-0.461-0.359c-0.21-0.826,0.439-0.674,0.45-1.561
		c0.021-1.68,0.023-2.811-0.022-4.285c-0.014-0.418-0.713-0.477-0.676-0.836c0.009-0.248,0.212-0.479,0.441-0.57
		c0.704-0.283,1.364-0.674,2.083-0.904c0.283-0.09,0.517,0.102,0.636,0.332c0.014,0.025,0.037,0.037,0.046,0.064
		c0.188,0.564,1.071-0.521,1.705-0.424C44.121,45.238,44.407,45.305,44.893,45.859L44.893,45.859z"/>
	<path fill-rule="evenodd" clip-rule="evenodd" fill="#FFFFFF" d="M36.748,45.795c0.341,0.42,0.503,0.969,0.464,1.559l0.057,4.4
		c0.039,0.139,0.19,0.27,0.337,0.297c0.174,0.029,0.311-0.08,0.457-0.043c0.364,0.092-0.128,0.797-0.357,1.129
		c-0.35,0.51-0.982,0.693-1.513,0.619c-0.464-0.064-0.781-0.357-1.135-0.643c-0.416-0.336-0.982,0.498-1.527,0.6
		c-0.85,0.154-1.691-0.076-2.204-0.684c-0.674-0.912-0.73-2.123-0.127-3.119c0.718-1.186,1.93-1.242,3.093-1.891
		c0.429-0.24,0.442-0.666,0.439-1.068c-0.001-0.168-0.105-0.424-0.268-0.496c-0.175-0.08-0.446-0.082-0.573,0.057
		c-0.188,0.209-0.011,0.477-0.061,0.734c-0.078,0.402-0.45,0.666-0.826,0.812c-0.381,0.15-0.979,0.189-1.306-0.105
		c-0.411-0.373-0.448-0.971-0.293-1.496c0.256-0.863,1.146-1.279,1.938-1.453C34.6,44.783,35.932,44.789,36.748,45.795
		L36.748,45.795z M34.733,49.242c0.037,0.729-0.028,1.467-0.038,2.215c-0.003,0.193-0.26,0.428-0.466,0.484
		c-0.195,0.045-0.426,0.045-0.565-0.111c-0.357-0.404-0.342-0.912-0.177-1.438C33.666,49.924,34.263,49.426,34.733,49.242
		L34.733,49.242z"/>
	<path fill-rule="evenodd" clip-rule="evenodd" fill="#FFFFFF" d="M23.129,48.385c0.515,0.869,0.925,2.172,0.925,2.816
		c0,0.275-0.023,0.6-0.461,0.645c-0.458,0.049-0.968-0.529-1.198-0.945c-0.385-0.691-1.268-2.256-0.96-3.488
		c0.102-0.408,0.505-0.391,0.671-0.289C22.572,47.408,22.862,47.934,23.129,48.385L23.129,48.385z M25.313,46.789
		c0.98,1.682,0.913,4.084-0.221,5.705c-0.6,0.857-1.521,1.41-2.543,1.373c-1.06-0.039-2.027-0.857-2.543-1.787
		c-0.907-1.637-0.894-4.037,0.203-5.594c0.677-0.963,1.723-1.631,2.939-1.402C24.091,45.264,24.825,45.951,25.313,46.789
		L25.313,46.789z"/>
	<path fill-rule="evenodd" clip-rule="evenodd" fill="#FFFFFF" d="M12.517,42.08c0.746,0.766,1.207,1.844,0.903,2.895
		c-0.157,0.525-0.525,1.004-0.995,1.354c1.425,0.908,2.332,2.572,2.082,4.156c-0.193,1.346-1.156,2.516-2.637,2.998
		c-0.433,0.141-1.151,0.191-1.151,0.191H6.25c-0.24-0.047-0.498-0.156-0.617-0.406c-0.215-0.445,0.452-0.693,0.455-1.191
		c0.012-2.178,0.015-5.701,0.015-5.701s-0.027-2.201-0.015-3.859c0.003-0.482-0.722-0.666-0.473-1.145
		c0.139-0.268,0.405-0.424,0.682-0.461C8.394,40.631,10.923,40.395,12.517,42.08L12.517,42.08z M10.812,48.43
		c0.463,0.961,0.625,2.521-0.231,3.371c-0.261,0.258-0.773,0.299-1.134,0.213c-0.278-0.064-0.219-0.199-0.239-0.816
		c-0.047-1.467,0.04-3.566,0.04-3.566c0.04-0.18,0.04-0.24,0.256-0.26C10.138,47.309,10.572,47.932,10.812,48.43L10.812,48.43z
		 M10.396,43.529c0.203,0.518,0.185,1.248-0.046,1.728c-0.17,0.354-0.594,0.516-0.933,0.402c-0.208-0.068-0.233-0.172-0.242-0.311
		l-0.008-2.482c0-0.119,0.02-0.199,0.259-0.199C9.925,42.668,10.184,42.986,10.396,43.529L10.396,43.529z"/>
	<path fill="#FFFFFF" d="M15.566,43.926c-0.359-0.553-0.049-1.391,0.691-1.871c0.74-0.48,1.632-0.422,1.99,0.129
		c0.358,0.553,0.049,1.391-0.691,1.871C16.816,44.535,15.925,44.479,15.566,43.926L15.566,43.926z"/>
	<path fill="#FFFFFF" d="M18.392,45.914l0.013,6.435c0.111,0.406,0.633,0.695,0.24,1.264c-0.174,0.252-0.472,0.164-0.786,0.191
		c-0.806,0.068-1.175,0.045-2.143-0.023c-0.228-0.016-0.389-0.168-0.453-0.371c-0.125-0.395,0.276-0.654,0.35-1.014v-4.691
		c-0.009-0.461-0.71-0.682-0.461-1.217c0.389-0.83,1.658-1.07,2.202-1.129C17.657,45.326,18.32,45.418,18.392,45.914L18.392,45.914z
		"/>
	<path fill-rule="evenodd" clip-rule="evenodd" fill="#FFFFFF" d="M53.573,41.215c0.303,0.338,0.138,0.967,0.156,1.465l0.064,9.004
		c0.147,0.312,0.581,0.543,0.442,0.949c-0.077,0.227-0.322,0.377-0.525,0.461c-0.665,0.271-1.29,0.617-2.018,0.727
		c-0.268,0.02-0.47-0.266-0.618-0.461c-0.069-0.09-0.208,0.1-0.208,0.1s-0.092,0.104-0.334,0.242
		c-0.749,0.428-1.494,0.322-2.157-0.119c-1.619-1.08-1.595-3.105-1.3-4.82c0.258-1.355,0.922-3.041,2.451-3.539
		c0.472-0.152,0.949-0.082,1.373,0.193c0.066,0.043,0.109-0.035,0.128-0.09c0,0,0.069-1.221,0.001-1.938
		c-0.043-0.451-0.682-0.617-0.414-1.086c0,0,0.165-0.201,0.304-0.287c0.674-0.41,1.204-0.664,2.102-0.949
		C53.248,40.994,53.415,41.039,53.573,41.215L53.573,41.215z M50.743,47.119c0.413,1.373,0.369,2.898,0.148,4.289
		c-0.048,0.299-0.14,0.504-0.379,0.596c-0.27,0.104-0.475-0.02-0.636-0.457c-0.187-0.506-0.208-0.922-0.248-1.578
		c-0.03-0.502-0.087-2.109,0.42-2.949C50.218,46.738,50.602,46.65,50.743,47.119L50.743,47.119z"/>
</g>
</svg>
