<svg enable-background="new 0 0 59.528 59.527" height="59.527" viewBox="0 0 59.528 59.527" width="59.528" xmlns="http://www.w3.org/2000/svg"><path d="m1.701 0h56.126c.939 0 1.701.762 1.701 1.701v56.125c0 .939-.762 1.701-1.701 1.701h-56.126c-.94 0-1.701-.761-1.701-1.701v-56.125c0-.939.761-1.701 1.701-1.701z" fill="#fff"/><path d="m2.268 1.417h54.992c.47 0 .85.381.85.851v54.992c0 .469-.381.85-.85.85h-54.992c-.47 0-.85-.381-.85-.85v-54.992c-.001-.47.38-.851.85-.851z" fill="#008244"/><g fill="#fff"><path d="m29.881 41.455c.021 1.467.003 10.803.003 10.803.129.389.528.902.169 1.231-.089.082-.147.143-.267.158-.941.111-1.609.135-2.682-.02-.204-.029-.373-.23-.428-.396-.115-.666.363-.723.382-1.162 0 0 .013-5.037.013-8.355 0-.576-.888-.812-.473-1.457.406-.631 1.199-.869 1.809-1.076.321-.111 1.466-.245 1.474.274z"/><path d="m44.893 45.859c.867.986.755 2.176.858 3.344.051.969.022 1.65.132 2.922.066.426.762.859.309 1.357-.269.293-.896.207-1.359.207-.737 0-1.972.197-2.073-.416-.093-.553.562-.742.489-1.258-.074-1.521.158-3.113-.293-4.531-.147-.381-.467-.43-.705-.438-.181-.008-.407.178-.413.33-.046 1.105-.008 4.832-.008 4.832.138.387.7.672.396 1.15-.188.297-.535.277-.839.332l-2.166-.018c-.193-.037-.368-.185-.461-.359-.21-.826.439-.674.45-1.561.021-1.68.023-2.811-.022-4.285-.014-.418-.713-.477-.676-.836.009-.248.212-.479.441-.57.704-.283 1.364-.674 2.083-.904.283-.09.517.102.636.332.014.025.037.037.046.064.188.564 1.071-.521 1.705-.424.698.109.984.176 1.47.73z"/><path clip-rule="evenodd" d="m36.748 45.795c.341.42.503.969.464 1.559l.057 4.4c.039.139.19.27.337.297.174.029.311-.08.457-.043.364.092-.128.797-.357 1.129-.35.51-.982.693-1.513.619-.464-.064-.781-.357-1.135-.643-.416-.336-.982.498-1.527.6-.85.154-1.691-.076-2.204-.684-.674-.912-.73-2.123-.127-3.119.718-1.186 1.93-1.242 3.093-1.891.429-.24.442-.666.439-1.068-.001-.168-.105-.424-.268-.496-.175-.08-.446-.082-.573.057-.188.209-.011.477-.061.734-.078.402-.45.666-.826.812-.381.15-.979.189-1.306-.105-.411-.373-.448-.971-.293-1.496.256-.863 1.146-1.279 1.938-1.453 1.257-.221 2.589-.215 3.405.791zm-2.015 3.447c.037.729-.028 1.467-.038 2.215-.003.193-.26.428-.466.484-.195.045-.426.045-.565-.111-.357-.404-.342-.912-.177-1.438.179-.468.776-.966 1.246-1.15z" fill-rule="evenodd"/><path clip-rule="evenodd" d="m23.129 48.385c.515.869.925 2.172.925 2.816 0 .275-.023.6-.461.645-.458.049-.968-.529-1.198-.945-.385-.691-1.268-2.256-.96-3.488.102-.408.505-.391.671-.289.466.284.756.81 1.023 1.261zm2.184-1.596c.98 1.682.913 4.084-.221 5.705-.6.857-1.521 1.41-2.543 1.373-1.06-.039-2.027-.857-2.543-1.787-.907-1.637-.894-4.037.203-5.594.677-.963 1.723-1.631 2.939-1.402.943.18 1.677.867 2.165 1.705z" fill-rule="evenodd"/><path clip-rule="evenodd" d="m12.517 42.08c.746.766 1.207 1.844.903 2.895-.157.525-.525 1.004-.995 1.354 1.425.908 2.332 2.572 2.082 4.156-.193 1.346-1.156 2.516-2.637 2.998-.433.141-1.151.191-1.151.191h-4.469c-.24-.047-.498-.156-.617-.406-.215-.445.452-.693.455-1.191.012-2.178.015-5.701.015-5.701s-.027-2.201-.015-3.859c.003-.482-.722-.666-.473-1.145.139-.268.405-.424.682-.461 2.097-.28 4.626-.516 6.22 1.169zm-1.705 6.35c.463.961.625 2.521-.231 3.371-.261.258-.773.299-1.134.213-.278-.064-.219-.199-.239-.816-.047-1.467.04-3.566.04-3.566.04-.18.04-.24.256-.26.634-.063 1.068.56 1.308 1.058zm-.416-4.901c.203.518.185 1.248-.046 1.728-.17.354-.594.516-.933.402-.208-.068-.233-.172-.242-.311l-.008-2.482c0-.119.02-.199.259-.199.499.001.758.319.97.862z" fill-rule="evenodd"/><path d="m15.566 43.926c-.359-.553-.049-1.391.691-1.871s1.632-.422 1.99.129c.358.553.049 1.391-.691 1.871s-1.631.424-1.99-.129z"/><path d="m18.392 45.914.013 6.435c.111.406.633.695.24 1.264-.174.252-.472.164-.786.191-.806.068-1.175.045-2.143-.023-.228-.016-.389-.168-.453-.371-.125-.395.276-.654.35-1.014v-4.691c-.009-.461-.71-.682-.461-1.217.389-.83 1.658-1.07 2.202-1.129.303-.033.966.059 1.038.555z"/><path clip-rule="evenodd" d="m53.573 41.215c.303.338.138.967.156 1.465l.064 9.004c.147.312.581.543.442.949-.077.227-.322.377-.525.461-.665.271-1.29.617-2.018.727-.268.02-.47-.266-.618-.461-.069-.09-.208.1-.208.1s-.092.104-.334.242c-.749.428-1.494.322-2.157-.119-1.619-1.08-1.595-3.105-1.3-4.82.258-1.355.922-3.041 2.451-3.539.472-.152.949-.082 1.373.193.066.043.109-.035.128-.09 0 0 .069-1.221.001-1.938-.043-.451-.682-.617-.414-1.086 0 0 .165-.201.304-.287.674-.41 1.204-.664 2.102-.949.228-.073.395-.028.553.148zm-2.83 5.904c.413 1.373.369 2.898.148 4.289-.048.299-.14.504-.379.596-.27.104-.475-.02-.636-.457-.187-.506-.208-.922-.248-1.578-.03-.502-.087-2.109.42-2.949.17-.282.554-.37.695.099z" fill-rule="evenodd"/></g></svg>