<svg height="623.2677" width="744.09448" xmlns="http://www.w3.org/2000/svg" xmlns:xlink="http://www.w3.org/1999/xlink"><linearGradient id="a" gradientUnits="userSpaceOnUse" x1="419.92032171966" x2="545.56599040413" y1="214.91991036297" y2="214.91991036297"><stop offset="0" stop-color="#71bf44"/><stop offset="1" stop-color="#fff"/></linearGradient><path d="m124.173 144.87-9.141 15.013 9.171 15.096h17.968l9.161-15.081-9.125-15.028z" fill="#fff" transform="matrix(19.522353 0 0 19.522353 -2227.9788 -2810.4687)"/><path d="m212.29578 46.198101-159.321928 263.340939 159.331678 265.34976h317.20507l158.83191-265.34976-158.82023-263.340939zm300.81797 29.055101c7.75426 12.859388 133.09558 220.690468 141.33206 234.344408-8.19548 13.68711-133.66368 223.30055-141.4043 236.23609-15.14545 0-269.16832 0-284.29036 0-7.75036-12.90821-133.614876-222.51775-141.849421-236.23609 8.279445-13.68518 134.017081-221.518186 141.777191-234.344408z" fill="#71bf44"/><path d="m230.60774 286.67441h13.87647c15.57884 0 33.34617 1.70436 33.34617 20.2037 0 17.28121-17.28314 19.71757-33.83223 19.71757h-13.39041zm-45.27819 72.0492h71.56893c30.42755 0 66.21399-8.51956 66.21399-49.16898 0-20.68981-11.68804-32.86197-34.3281-37.49074v-.48606c18.9913-6.32722 29.94529-18.25537 29.94529-39.67725 0-29.21328-23.61228-43.08584-55.25994-43.08584h-78.14017zm45.27819-137.77702h13.1444c15.0908 0 29.69934 1.45829 29.69934 17.04104 0 14.35868-15.33482 18.01328-30.18545 18.01328h-12.65829z" fill="#231f20"/><path d="m460.1906 273.75067c0-29.45339 10.954-54.28 38.46293-54.28 27.50897 0 38.45906 24.82661 38.45906 54.28 0 27.99696-10.95009 54.28771-38.45906 54.28771-27.50893 0-38.46293-26.29075-38.46293-54.28771zm-46.73653 0c0 54.0476 29.70132 87.87791 85.19946 87.87791 55.50011 0 85.19558-33.83031 85.19558-87.87791 0-54.52596-29.20936-87.87598-85.19558-87.87598-55.99009 0-85.19946 33.35002-85.19946 87.87598z" fill="#231f20"/><path d="m381.10554 209.6197c0 12.55091-10.1848 22.73769-22.73571 22.73769-12.5509 0-22.73576-10.18678-22.73576-22.73769 0-12.54898 10.18486-22.7357 22.73576-22.7357 12.55091 0 22.73571 10.18672 22.73571 22.7357z" fill="#231f20" fill-rule="evenodd"/><path d="m336.20416 230.25486v128.44925h45.11812c2.11814-6.0773 28.17659-79.77223 57.95015-115.627 26.79443-32.26065 68.37702-71.11405 119.97657-37.11002 0 0-48.78639-46.11763-112.3492-9.14816-40.66314 23.65328-61.41344 65.40375-65.41746 76.34017v-44.01901c-5.40574 6.81724-13.74177 11.20583-23.11058 11.20583-8.83972 0-16.75994-3.91812-22.1676-10.09106z" fill="url(#a)" fill-rule="evenodd"/><g fill="#231f20"><path d="m333.3539 403.55474c0-1.61641-.13277-3.23482-.17376-4.80832h3.5433l.1308 3.3227h.0859c1.17719-2.5379 3.05916-3.62727 5.63806-3.62727 3.88883 0 6.51268 2.22749 6.51268 7.1276v15.46761h-3.66826v-14.37631c0-3.54132-1.31389-5.07383-3.67412-5.07383-2.8854 0-4.72247 2.01471-4.72247 6.0324v13.41774h-3.67213z"/><path d="m365.95623 412.90599c0 3.05912-2.00888 5.63609-5.20078 5.63609-2.53592 0-3.75807-1.52667-3.75807-3.88689 0-2.58088 2.05377-4.6346 6.38187-4.6346 1.00348 0 1.921 0 2.57698.08981zm-10.2746-9.17747c1.2709-1.39978 3.45542-2.3173 5.72782-2.3173 1.5325 0 2.97328.39041 3.71317 1.3978.70082.96049.83361 1.9249.83361 3.58237v1.0054h-2.1416c-7.6508 0-10.49136 3.18991-10.49136 7.51801 0 4.28711 2.7546 6.42678 6.42678 6.42678 3.4086 0 5.24568-1.6184 6.25108-3.3227h.0859l.21669 3.01426h3.32463c-.08783-.78676-.17763-2.09475-.17763-3.41058v-11.62555c0-3.14508-.95857-4.4999-1.91907-5.4643-.70473-.6989-2.66672-2.09477-5.94843-2.09477-2.18259 0-4.45504.65399-6.29207 1.83708z"/><path d="m387.78223 402.63722c-1.26898-.69889-2.53598-1.0503-4.24028-1.0503-3.58237 0-6.11829 2.49102-6.11829 8.52733 0 5.15587 2.44612 8.08617 6.03041 8.08617 1.75119 0 3.23296-.52711 4.50188-1.1811l.17763 3.36369c-1.0913.48028-3.06111.96248-4.67951.96248-6.64341 0-9.88022-4.93917-9.88022-11.23124 0-7.2135 3.76392-11.6724 9.9681-11.6724 1.53052 0 3.23681.30457 4.414.87267z"/><path d="m391.66714 388.26874h3.66825v13.55047h.09175c.95856-1.87802 2.88153-3.36369 5.46236-3.36369 3.8908 0 6.5146 2.22749 6.5146 7.1276v15.4676h-3.67212v-14.37631c0-3.54132-1.31389-5.07382-3.67218-5.07382-2.88732 0-4.72441 2.01471-4.72441 6.0324v13.41773h-3.66825z"/><path d="m124.767 166.821h.728v.17h-.531v.497h.506v.17h-.506v.556h.56v.17h-.757z" transform="matrix(19.522353 0 0 19.522353 -2227.9788 -2810.4687)"/><path d="m248.04118 475.51414c-1.7902.65399-4.84931 1.57157-7.56491 1.57157-9.65768 0-13.72225-7.34039-13.72225-15.60425 0-9.52688 5.55019-15.51828 13.50556-15.51828 2.62187 0 5.0719.3514 7.16859 1.35482v3.84986c-2.31339-1.18116-4.89619-1.88198-7.12369-1.88198-4.98209 0-9.52689 3.97867-9.52689 11.4108 0 7.86754 3.14503 13.06633 9.79047 13.06633 1.2221 0 2.7956-.30259 3.79901-.82578v-9.61868h-5.11289v-3.3227h8.787z"/><path d="m127.091 167.835h.484v-.161h-.484z" transform="matrix(19.522353 0 0 19.522353 -2227.9788 -2810.4687)"/><path d="m279.45264 443.26323h3.49648v-4.373h-3.49648zm-6.99091 0h3.49841v-4.373h-3.49841zm-6.03047 18.57747c0 9.44099 4.32618 15.25283 11.09846 15.25283 7.2135 0 11.45571-5.33157 11.45571-15.86777 0-9.44104-4.3281-15.25476-11.10629-15.25476-7.2135 0-11.44788 5.33741-11.44788 15.8697zm4.01576 0c0-9.40199 3.41052-12.71879 7.43212-12.71879 5.15978 0 7.08275 5.94061 7.08275 12.10385 0 9.4-3.41057 12.7227-7.43217 12.7227-5.15388 0-7.0827-5.94456-7.0827-12.10776z"/><path d="m129.752 167.242h.219l-.448.511.488.631h-.233l-.414-.575h-.004v.575h-.188v-1.679h.188v.996z" transform="matrix(19.522353 0 0 19.522353 -2227.9788 -2810.4687)"/><path d="m314.30008 465.63585c0-5.5951 1.6184-8.4805 5.11289-8.4805 3.49648 0 5.11488 2.8854 5.11488 8.4805 0 5.59509-1.6184 8.47857-5.11488 8.47857-3.49449 0-5.11289-2.88348-5.11289-8.47857zm-3.84981 0c0 6.99096 3.06303 11.44986 8.9627 11.44986s8.95879-4.4589 8.95879-11.44986c0-6.99487-3.05912-11.45377-8.95879-11.45377s-8.9627 4.4589-8.9627 11.45377z"/><path d="m131.115 167.835h.484v-.161h-.484z" transform="matrix(19.522353 0 0 19.522353 -2227.9788 -2810.4687)"/><path d="m131.708 166.821h.215l.363 1.274h.005l.382-1.274h.198l-.491 1.563h-.197z" transform="matrix(19.522353 0 0 19.522353 -2227.9788 -2810.4687)"/><path d="m370.17303 463.93739c.0859-5.20463 2.18259-6.94997 4.54479-6.94997 2.92837 0 4.36716 2.31344 4.36716 6.94997zm12.58606 2.7956v-1.96783c0-6.5556-2.7956-10.57725-7.8226-10.57725-5.5541 0-8.6152 4.45895-8.6152 11.45378 0 6.99096 3.0611 11.44986 8.96077 11.44986 2.23141 0 4.5038-.47631 6.25493-1.30799l-.17763-3.3227c-1.26308.91758-3.27779 1.83509-5.11289 1.83509-4.06458 0-6.07344-2.40319-6.07344-7.56296z"/><path d="m386.80608 459.29111c0-1.61846-.13272-3.23097-.17376-4.80447h3.54137l.1308 3.49642h.08788c1.1811-2.7097 3.05719-3.8049 6.33498-3.8049v3.62727c-.43537-.08788-.91757-.13278-1.39978-.13278-2.84049 0-4.84931 2.45201-4.84931 7.30138v11.80326h-3.67218z"/><path d="m402.50206 465.63585c0-5.5951 1.61841-8.4805 5.11873-8.4805 3.49455 0 5.11296 2.8854 5.11296 8.4805 0 5.59509-1.61841 8.47857-5.11296 8.47857-3.50032 0-5.11873-2.88348-5.11873-8.47857zm-3.84589 0c0 6.99096 3.05911 11.44986 8.96462 11.44986 5.89968 0 8.95885-4.4589 8.95885-11.44986 0-6.99487-3.05917-11.45377-8.95885-11.45377-5.90551 0-8.96462 4.4589-8.96462 11.45377z"/><path d="m420.81402 459.29111c0-1.61846-.13079-3.23097-.17763-4.80447h3.54132l.1308 3.49642h.08788c1.1811-2.7097 3.06302-3.8049 6.34082-3.8049v3.62727c-.4373-.08788-.91752-.13278-1.39972-.13278-2.84248 0-4.85521 2.45201-4.85521 7.30138v11.80326h-3.66826z"/><path d="m446.13451 465.63585c0 5.59509-1.53057 8.47857-4.89426 8.47857-3.36761 0-4.8962-2.88348-4.8962-8.47857 0-5.5951 1.52859-8.4805 4.8962-8.4805 3.36369 0 4.89426 2.8854 4.89426 8.4805zm3.67412-21.63664h-3.67412v13.55047h-.08396c-1.4876-2.36414-3.15091-3.3676-5.68881-3.3676-4.58579 0-7.68981 3.76-7.68981 11.45377 0 7.69179 3.10402 11.44986 7.68981 11.44986 3.2368 0 4.90011-1.83118 5.85867-3.58039h.08788l.13272 3.27582h3.5394c-.04683-1.35482-.17178-2.75262-.17178-4.10942z"/><path d="m454.78295 459.29111c0-1.61846-.13086-3.23097-.1757-4.80447h3.54132l.13079 3.31879h.09174c1.17725-2.53207 3.05334-3.62727 5.63615-3.62727 3.8908 0 6.5146 2.2314 6.5146 7.1276v15.47153h-3.67411v-14.38017c0-3.54331-1.30997-5.06998-3.6741-5.06998-2.87957 0-4.71659 2.00881-4.71659 6.0324v13.41775h-3.6741z"/><path d="m491.58256 471.98059c0 1.6184.13273 3.2368.17372 4.80837h-3.54331l-.1308-3.32077h-.08589c-1.17719 2.53405-3.05912 3.62534-5.63609 3.62534-3.8908 0-6.5146-2.22749-6.5146-7.12175v-15.47345h3.6741v14.38215c0 3.53741 1.30799 5.06798 3.67218 5.06798 2.88149 0 4.71851-2.01272 4.71851-6.0324v-13.41773h3.67218z"/><path d="m496.91215 459.29111c0-1.61846-.1308-3.23097-.17764-4.80447h3.54133l.1308 3.31879h.09179c1.18303-2.53207 3.05912-3.62727 5.63608-3.62727 3.89279 0 6.5146 2.2314 6.5146 7.1276v15.47153h-3.6741v-14.38017c0-3.54331-1.30798-5.06998-3.66826-5.06998-2.8854 0-4.72242 2.00881-4.72242 6.0324v13.41775h-3.67218z"/><path d="m520.57325 465.63585c0-5.5951 1.53251-8.4805 4.90011-8.4805 3.36369 0 4.89427 2.8854 4.89427 8.4805 0 5.59509-1.53058 8.47857-4.89427 8.47857-3.3676 0-4.90011-2.88348-4.90011-8.47857zm13.46259-7.08077c0-1.35483.13278-2.7546.17768-4.06453h-3.53938l-.13279 3.23091h-.08589c-1.2221-2.13961-3.23681-3.53938-5.4643-3.53938-4.98017 0-8.08618 3.76-8.08618 11.45377 0 7.69179 3.10601 11.44986 7.69571 11.44986 2.44617 0 4.41405-1.22209 5.85477-3.75807h.08589v3.50038c0 3.84392-1.7492 6.50877-6.24909 6.50877-2.00887 0-4.54678-.87268-6.11829-1.91907l-.17769 3.7151c1.6184.65399 4.63659 1.35289 6.51267 1.35289 4.8962 0 9.52689-2.57691 9.52689-8.74017z"/></g></svg>